HIERARCHY
ROOT Hips
{
	OFFSET	0.00	0.00	0.00
	CHANNELS 6 Xposition Yposition Zposition Zrotation Xrotation Yrotation
	JOINT LeftHip
	{
		OFFSET	 3.430000	 0.000000	 0.000000
		CHANNELS 3 Zrotation Xrotation Yrotation
		JOINT LeftKnee
		{
			OFFSET	 0.000000	-18.469999	 0.000000
			CHANNELS 3 Zrotation Xrotation Yrotation
			JOINT LeftAnkle
			{
				OFFSET	 0.000000	-17.950001	 0.000000
				CHANNELS 3 Zrotation Xrotation Yrotation
				End Site 
				{
					OFFSET	 0.000000	-3.119999	 0.000000
				}
			}
		}
	}
	JOINT RightHip
	{
		OFFSET	-3.430000	 0.000000	 0.000000
		CHANNELS 3 Zrotation Xrotation Yrotation
		JOINT RightKnee
		{
			OFFSET	 0.000000	-18.809999	 0.000000
			CHANNELS 3 Zrotation Xrotation Yrotation
			JOINT RightAnkle
			{
				OFFSET	 0.000000	-17.570000	 0.000000
				CHANNELS 3 Zrotation Xrotation Yrotation
				End Site 
				{
					OFFSET	 0.000000	-3.250000	 0.000000
				}
			}
		}
	}
	JOINT Chest
	{
		OFFSET	 0.000000	 4.570000	 0.000000
		CHANNELS 3 Zrotation Xrotation Yrotation
		JOINT LeftCollar
		{
			OFFSET	 1.060000	 15.330000	 1.760000
			CHANNELS 3 Zrotation Xrotation Yrotation
			JOINT LeftShoulder
			{
				OFFSET	 5.810000	 0.000000	 0.000000
				CHANNELS 3 Zrotation Xrotation Yrotation
				JOINT LeftElbow
				{
					OFFSET	 0.000000	-12.080000	 0.000000
					CHANNELS 3 Zrotation Xrotation Yrotation
					JOINT LeftWrist
					{
						OFFSET	 0.000000	-9.820000	 0.000000
						CHANNELS 3 Zrotation Xrotation Yrotation
						End Site 
						{
							OFFSET	 0.000000	-7.370000	 0.000000
						}
					}
				}
			}
		}
		JOINT RightCollar
		{
			OFFSET	-1.060000	 15.330000	 1.760000
			CHANNELS 3 Zrotation Xrotation Yrotation
			JOINT RightShoulder
			{
				OFFSET	-6.060000	 0.000000	 0.000000
				CHANNELS 3 Zrotation Xrotation Yrotation
				JOINT RightElbow
				{
					OFFSET	 0.000000	-11.900000	 0.000000
					CHANNELS 3 Zrotation Xrotation Yrotation
					JOINT RightWrist
					{
						OFFSET	 0.000000	-9.520000	 0.000000
						CHANNELS 3 Zrotation Xrotation Yrotation
						End Site 
						{
							OFFSET	 0.000000	-7.140000	 0.000000
						}
					}
				}
			}
		}
		JOINT Neck
		{
			OFFSET	 0.000000	 17.620001	 0.000000
			CHANNELS 3 Zrotation Xrotation Yrotation
			JOINT Head
			{
				OFFSET	 0.000000	 5.190000	 0.000000
				CHANNELS 3 Zrotation Xrotation Yrotation
				End Site 
				{
					OFFSET	 0.000000	 4.139999	 0.000000
				}
			}
		}
	}
}
MOTION
Frames:     4
Frame Time: 0.033333
 0.00	 39.68	 0.00	 0.00	0.00	0.00	 0.00	 0.00	0.00	 0.00	 0.00	 0.00	0.00	0.00	 0.00	0.00	 0.00	 0.00	 0.00	0.00	0.00	0.00	0.00	 0.00	0.00	 0.00	0.00	0.00	 0.00	 0.00	 0.00	0.00	 0.00	 0.00	0.00	 0.00	 0.00	 0.00	 0.00	 0.00	 0.00	0.00	0.00	 0.00	0.00	 0.00	0.00	0.00	 0.00	 0.00	 0.00	 0.00	 0.00	 0.00	0.00	0.00	0.00	
 0.00	 39.68	 0.00	 0.00	0.00	0.00	 0.00	 0.00	0.00	 0.00	 0.00	 0.00	0.00	0.00	 0.00	0.00	 0.00	 0.00	 0.00	0.00	0.00	0.00	0.00	 0.00	0.00	 0.00	0.00	0.00	 0.00	 0.00	 0.00	0.00	 0.00	 0.00	0.00	 0.00	 0.00	 0.00	 0.00	 0.00	 0.00	0.00	0.00	 0.00	0.00	 0.00	0.00	0.00	 0.00	 0.00	 0.00	 0.00	 0.00	 0.00	0.00	0.00	0.00	
 0.00	 39.68	 0.00	 0.65	-14.85	-0.72	 6.03	 18.85	-1.96	 1.84	 1.50	 13.41	-3.84	-3.16	 1.70	-6.15	 22.25	 2.34	 0.81	-2.92	-29.03	-7.16	-4.92	 2.27	-2.17	 15.18	-0.15	-4.18	 0.00	 5.27	 68.32	-8.75	 70.68	 0.00	-19.06	 19.90	 0.00	 0.00	 0.00	 6.60	 0.00	-0.32	-69.67	 3.92	-47.24	 0.00	-19.68	-27.33	 0.00	 0.00	 0.00	 3.80	 42.79	 0.00	-1.90	-40.35	-1.92	
 0.00	 39.68	 0.00	 0.62	-14.79	-0.82	 6.08	 18.81	-1.97	 1.73	 1.48	 13.56	-3.84	-3.33	 1.69	-6.13	 22.15	 2.32	 0.84	-2.93	-28.71	-7.17	-5.11	 2.24	-2.17	 15.28	-0.07	-3.98	 0.00	 5.70	 68.17	-9.34	 71.24	 0.00	-18.95	 20.03	 0.00	 0.00	 0.00	 6.28	 0.00	-0.85	-69.34	 3.19	-47.15	 0.00	-19.79	-27.26	 0.00	 0.00	 0.00	 3.50	 41.91	 0.00	-1.34	-39.59	-1.46	
